<svg width="32" height="32" viewBox="0 0 32 32" fill="none" xmlns="http://www.w3.org/2000/svg">
<rect width="32" height="32" fill="black"/>
<path d="M16 9.59048C12.4532 9.59048 9.59065 12.453 9.59065 15.9999C9.59065 19.5467 12.4532 22.4092 16 22.4092C19.5469 22.4092 22.4094 19.5467 22.4094 15.9999C22.4094 12.453 19.5469 9.59048 16 9.59048ZM16 20.1655C13.7063 20.1655 11.8344 18.2936 11.8344 15.9999C11.8344 13.7061 13.7063 11.8342 16 11.8342C18.2938 11.8342 20.1657 13.7061 20.1657 15.9999C20.1657 18.2936 18.2938 20.1655 16 20.1655ZM22.6719 7.83423C21.8438 7.83423 21.175 8.50298 21.175 9.33111C21.175 10.1592 21.8438 10.828 22.6719 10.828C23.5 10.828 24.1688 10.1624 24.1688 9.33111C24.169 9.13446 24.1305 8.9397 24.0553 8.75798C23.9802 8.57626 23.8699 8.41115 23.7309 8.2721C23.5919 8.13306 23.4267 8.02281 23.245 7.94767C23.0633 7.87253 22.8685 7.83398 22.6719 7.83423ZM28.4938 15.9999C28.4938 14.2749 28.5094 12.5655 28.4125 10.8436C28.3157 8.84361 27.8594 7.0686 26.3969 5.60611C24.9313 4.14048 23.1594 3.68736 21.1594 3.59048C19.4344 3.49361 17.725 3.50923 16.0031 3.50923C14.2781 3.50923 12.5688 3.49361 10.8469 3.59048C8.8469 3.68736 7.0719 4.14361 5.6094 5.60611C4.14378 7.07173 3.69065 8.84361 3.59378 10.8436C3.4969 12.5686 3.51253 14.278 3.51253 15.9999C3.51253 17.7217 3.4969 19.4342 3.59378 21.1561C3.69065 23.1561 4.1469 24.9311 5.6094 26.3936C7.07503 27.8592 8.8469 28.3124 10.8469 28.4092C12.5719 28.5061 14.2813 28.4905 16.0031 28.4905C17.7282 28.4905 19.4375 28.5061 21.1594 28.4092C23.1594 28.3124 24.9344 27.8561 26.3969 26.3936C27.8625 24.928 28.3157 23.1561 28.4125 21.1561C28.5125 19.4342 28.4938 17.7249 28.4938 15.9999ZM25.7438 23.3686C25.5157 23.9374 25.2407 24.3624 24.8 24.7999C24.3594 25.2405 23.9375 25.5155 23.3688 25.7436C21.725 26.3967 17.8219 26.2499 16 26.2499C14.1782 26.2499 10.2719 26.3967 8.62815 25.7467C8.0594 25.5186 7.6344 25.2436 7.1969 24.803C6.75628 24.3624 6.48128 23.9405 6.25315 23.3717C5.60315 21.7249 5.75003 17.8217 5.75003 15.9999C5.75003 14.178 5.60315 10.2717 6.25315 8.62798C6.48128 8.05923 6.75628 7.63423 7.1969 7.19673C7.63753 6.75923 8.0594 6.48111 8.62815 6.25298C10.2719 5.60298 14.1782 5.74986 16 5.74986C17.8219 5.74986 21.7282 5.60298 23.3719 6.25298C23.9407 6.48111 24.3657 6.75611 24.8032 7.19673C25.2438 7.63736 25.5188 8.05923 25.7469 8.62798C26.3969 10.2717 26.25 14.178 26.25 15.9999C26.25 17.8217 26.3969 21.7249 25.7438 23.3686Z" fill="#EDF2F4"/>
</svg>
